<?xml version="1.0" encoding="utf-8"?>
<!-- Generator: Adobe Illustrator 16.0.0, SVG Export Plug-In . SVG Version: 6.00 Build 0)  -->
<!DOCTYPE svg PUBLIC "-//W3C//DTD SVG 1.1//EN" "http://www.w3.org/Graphics/SVG/1.1/DTD/svg11.dtd">
<svg version="1.1" xmlns="http://www.w3.org/2000/svg" xmlns:xlink="http://www.w3.org/1999/xlink" x="0px" y="0px" width="130.5px"
	 height="65.5px" viewBox="0 0 130.5 65.5" enable-background="new 0 0 130.5 65.5" xml:space="preserve">
<g id="Layer_2">
</g>
<g id="Layer_1">
	<path fill="#F2F2F2" d="M57.724,39.707c-0.062,0.003-0.136,0.007-0.22,0.007c-1.303,0-1.766-0.875-1.875-1.144
		c-0.15-0.346-0.378-1.255,0.544-2.177l1.465-1.467l-0.588-0.601c-0.036-0.035-0.072-0.067-0.105-0.101
		c-3.27,3.087-5.83,5.493-6.527,6.144c-1.489,1.385-2.767,2.58-3.734,3.482c-0.483,0.453-0.885,0.829-1.196,1.12
		c-0.156,0.148-0.295,0.272-0.402,0.376c-0.108,0.104-0.198,0.181-0.263,0.245c-0.862,0.822-1.738,1.543-2.633,2.171
		c-1.338,0.936-2.702,1.647-4.15,2.137c-1.444,0.48-2.973,0.752-4.712,0.765h-0.118c-2.415,0-4.696-0.483-6.779-1.362
		c-3.021-1.268-5.622-3.372-7.503-6.025c0,0,2.41-1.054,3.093-1.332c0.685-0.272-0.044-0.658-0.044-0.658L9.791,35.886L5.242,48.654
		c0,0-0.38,0.621,0.317,0.369c0.695-0.245,3.712-1.593,3.712-1.593c2.116,3.549,4.992,6.585,8.415,8.883
		c2.216,1.493,4.663,2.677,7.278,3.482c2.609,0.802,5.388,1.245,8.247,1.238h0.179c1.883-0.013,3.694-0.214,5.433-0.604
		c2.601-0.581,5.014-1.56,7.198-2.818c2.185-1.268,4.147-2.794,5.935-4.485l0.007-0.01c0.044-0.037,0.12-0.111,0.225-0.211
		c0.404-0.379,1.192-1.121,2.252-2.107c1.141-1.067,6.541-6.116,11.774-11.054C66.022,39.562,57.724,39.707,57.724,39.707"/>
	<path fill="#F2F2F2" d="M69.174,23.39c0.246-0.225,0.756-0.605,1.459-0.605c0.933,0,1.873,0.716,1.873,2.082l0.005,1.087
		c0.002,1.422-0.203,7.57,0.026,7.788c3.829-3.615,7.594-7.156,8.377-7.884c0.301-0.278,0.592-0.548,0.869-0.81h-4.947
		c-0.771,0-1.245-0.337-1.508-0.623c-0.374-0.407-0.543-0.929-0.496-1.557V17.36c-1.918,1.805-4.829,4.552-7.998,7.533
		c0.146,0.138,0.292,0.271,0.431,0.406C67.266,25.298,69.16,23.406,69.174,23.39"/>
	<path fill="#F2F2F2" d="M125.993,33.073v-0.171v-0.01c-0.027-3.819-0.822-7.479-2.248-10.801
		c-2.134-4.981-5.659-9.195-10.097-12.178c-2.218-1.489-4.667-2.673-7.277-3.484c-2.616-0.805-5.393-1.241-8.253-1.241H97.94
		c-1.88,0.012-3.693,0.221-5.428,0.606c-2.606,0.58-5.017,1.562-7.203,2.824c-2.187,1.262-4.153,2.796-5.939,4.488l0.751-0.711
		l-0.751,0.711c-0.029,0.029-0.07,0.065-0.118,0.11l-2.401-2.393c0,0-0.346-0.309-0.346,0.268v11.812
		c0,0.181-0.095,0.469,0.331,0.469h11.956c0.388,0,0.248-0.36,0.248-0.36l-2.448-2.454c0.834-0.786,1.684-1.488,2.549-2.091
		c1.337-0.936,2.704-1.646,4.146-2.135c1.45-0.481,2.979-0.759,4.721-0.772h0.11c2.416,0,4.697,0.485,6.78,1.365
		c3.127,1.31,5.808,3.519,7.696,6.3c0.946,1.386,1.697,2.919,2.211,4.553c0.517,1.63,0.802,3.36,0.815,5.175v0.121v0.022v0.019
		v0.017v0.023v0.121c-0.014,1.815-0.299,3.547-0.815,5.178c-0.084,0.268-0.185,0.533-0.282,0.802
		c2.047-0.691,3.643-1.238,3.975-1.379c0.383-0.158,0.766-0.238,1.124-0.238c1.306,0,2.117,0.99,2.274,1.986l1.409,5.479
		c0.151-0.322,0.299-0.641,0.439-0.969c1.426-3.315,2.221-6.981,2.248-10.804v-0.005v-0.169v-0.04V33.073z"/>
	<path fill="#F2F2F2" d="M5.338,33.322v0.006c0.015,2.51,0.366,4.939,1.01,7.254l1.869-5.254c0.155-0.439,0.483-0.792,0.914-0.978
		c0.21-0.089,0.437-0.134,0.659-0.134c0.232,0,0.46,0.045,0.68,0.144l5.635,2.495c-0.252-1.155-0.388-2.351-0.395-3.581v-0.122
		v-0.021v-0.018v-0.021v-0.021v-0.119c0.01-1.813,0.3-3.544,0.812-5.177c0.517-1.632,1.266-3.165,2.215-4.551
		c1.89-2.781,4.571-4.989,7.693-6.301c2.084-0.88,4.365-1.365,6.782-1.365h0.117c1.739,0.015,3.267,0.292,4.712,0.772
		c1.447,0.491,2.811,1.201,4.15,2.137c0.895,0.622,1.771,1.345,2.633,2.167c0.065,0.061,0.155,0.144,0.263,0.248
		c0.106,0.099,0.246,0.229,0.402,0.373c0.311,0.293,0.713,0.671,1.195,1.121c0.967,0.901,2.246,2.097,3.735,3.479
		c2.255,2.104,4.984,4.646,7.804,7.273l0.257,0.267l0.357,0.366l1.144,1.186c0,0-0.551,0.549-1.159,1.16
		c-0.004,0-0.004,0.003-0.004,0.007l-1.461,1.459c-0.011,0.007-0.02,0.017-0.022,0.027c-0.023,0.021-0.043,0.047-0.062,0.061
		c-0.049,0.064-0.085,0.124-0.103,0.181c0,0.003,0,0.003-0.001,0.007c-0.003,0.027-0.003,0.054,0.001,0.074
		c0.002,0.003,0.002,0.003,0.002,0.003c0.001,0.01,0.009,0.013,0.009,0.017c0.003,0.003,0.009,0.01,0.014,0.02
		c0.01,0.01,0.022,0.021,0.044,0.034c0,0,0,0,0.003,0c0.021,0.014,0.05,0.02,0.086,0.03c0.007,0,0.01,0,0.013,0
		c0.043,0.007,0.095,0.013,0.16,0.017h0.014c0.034,0,0.062-0.003,0.087-0.003c0.026-0.006,0.049-0.006,0.049-0.006h0.074h12.716
		c0,0,0.394,0.027,0.396-0.373c0.024-2.078,0-12.13,0-12.794c0-0.74-0.525-0.255-0.525-0.255l-3.009,3.019
		c-4.382-4.096-10.37-9.88-12.862-12.202c-1.06-0.99-1.849-1.728-2.252-2.108c-0.105-0.096-0.18-0.168-0.225-0.214l-0.007-0.002
		c-1.788-1.691-3.75-3.224-5.935-4.486c-2.185-1.26-4.599-2.242-7.198-2.822C37.084,5.408,35.271,5.2,33.39,5.187h-0.177
		c-2.86,0-5.64,0.436-8.249,1.243c-2.616,0.809-5.062,1.994-7.278,3.482c-4.44,2.983-7.97,7.199-10.104,12.179
		c-1.422,3.321-2.219,6.981-2.244,10.801v0.01v0.169v0.042v0.039V33.322z"/>
	<path fill="#F2F2F2" d="M119.143,39.421c-1.057,0.436-11.912,4.029-11.912,4.029s-0.782,0.144-0.034,0.53
		c0.903,0.466,3.144,1.704,3.144,1.704c-1.562,1.523-3.408,2.764-5.441,3.616c-2.083,0.879-4.364,1.362-6.78,1.362h-0.112
		c-1.737-0.013-3.269-0.285-4.719-0.765c-1.443-0.49-2.808-1.201-4.146-2.137c-0.892-0.627-1.769-1.349-2.633-2.171
		c-0.07-0.063-0.154-0.141-0.262-0.245c-0.112-0.104-0.244-0.228-0.402-0.376c-0.31-0.292-0.714-0.667-1.195-1.12
		c-0.968-0.903-2.251-2.097-3.734-3.482c-0.978-0.909-3.532-3.308-6.333-5.942l-2.065,2.078c-0.001,0.5-0.001,0.906-0.008,1.174
		c-0.015,1.161-0.896,2.03-2.051,2.03H69.34l-2.061,2.077c4.168,3.909,8.236,7.733,9.611,9.015c1.059,0.986,1.847,1.728,2.25,2.107
		c0.108,0.101,0.185,0.174,0.231,0.211l0.749,0.711l-0.749-0.711c1.784,1.694,3.75,3.227,5.939,4.495
		c2.185,1.258,4.595,2.238,7.201,2.818c1.734,0.389,3.548,0.59,5.428,0.604h0.178c2.858,0.007,5.637-0.436,8.25-1.238
		c2.613-0.805,5.062-1.989,7.28-3.482c2.288-1.54,4.337-3.412,6.074-5.545c0,0,2.554,1.396,3.087,1.674
		c0.526,0.272,0.54-0.433,0.54-0.433l-3.1-12.067C120.25,39.941,120.179,38.992,119.143,39.421"/>
	<path fill="#F2F2F2" d="M105.473,31.081c0-2.327-1.752-4.215-3.902-4.215c-1.429,0-2.677,0.839-3.356,2.077
		c-0.676-1.238-1.924-2.077-3.353-2.077c-2.154,0-3.902,1.889-3.902,4.215c0,1.305,0.551,2.469,1.413,3.246h-0.014l5.855,5.431
		l5.85-5.431C104.922,33.55,105.473,32.386,105.473,31.081"/>
	<path fill="#FFFFFF" d="M101.95,31.953c0-1.164-0.869-2.11-1.946-2.11c-0.718,0-1.342,0.417-1.678,1.037
		c-0.344-0.619-0.963-1.037-1.681-1.037c-1.076,0-1.95,0.946-1.95,2.11c0,0.651,0.274,1.236,0.707,1.622h-0.005l2.929,2.717
		l2.923-2.717C101.678,33.189,101.95,32.604,101.95,31.953"/>
	<path fill="#F2F2F2" d="M41.375,30.835c0-2.325-1.752-4.215-3.901-4.215c-1.427,0-2.68,0.835-3.356,2.073
		c-0.678-1.238-1.927-2.073-3.356-2.073c-2.154,0-3.901,1.891-3.901,4.215c0,1.307,0.552,2.471,1.411,3.244h-0.01l5.856,5.433
		l5.848-5.433C40.823,33.307,41.375,32.143,41.375,30.835"/>
	<path fill="#FFFFFF" d="M37.854,31.708c0-1.163-0.872-2.107-1.951-2.107c-0.716,0-1.338,0.417-1.677,1.035
		c-0.34-0.618-0.963-1.035-1.68-1.035c-1.074,0-1.952,0.944-1.952,2.107c0,0.651,0.278,1.234,0.708,1.62h-0.005l2.929,2.718
		l2.925-2.718C37.581,32.942,37.854,32.359,37.854,31.708"/>
</g>
</svg>
